<svg height="200px" width="200px" version="1.1" id="Capa_1" xmlns="http://www.w3.org/2000/svg" xmlns:xlink="http://www.w3.org/1999/xlink" viewBox="0 0 410.152 410.152" xml:space="preserve">
	<g id="SVGRepo_bgCarrier" stroke-width="0"></g>
	<g id="SVGRepo_tracerCarrier" stroke-linecap="round" stroke-linejoin="round"></g>
	<g id="SVGRepo_iconCarrier">
		<g>
			<path fill="#809BAB" d="M63 69l7 66h-8v110h-12v95h229v-64h40v64h27v-94h-204v-108h-11l12-69h-80zM185 145l36 19 139-71-20-11-52 22-66-24 36 40-46 22-27 3z"></path>
			<path fill="#2b5873" d="M362.5734 80.8666l-3.8637 5.639 3.8093-5.68c-11.223-7.687-22.9242-8.6426-34.7475-2.9357l-38.6938 18.1862-1.1469.6829-23.9482-12.5203c-10.0218-6.6765-21.4496-10.199-33.287-10.199-.0134 0-.0134 0-.0134 0l-20.2208.5734c-2.8947.0954-5.4342 2.007-6.3078 4.7648s.0954 5.7888 2.4301 7.5232l42.5165 31.8803-33.4643 17.3946c-4.1094-.3962-16.5203-3.4406-22.0499-4.7923-7.687-1.8842-8.8749-2.1574-10.2266-2.1574h-13.6531c-2.8806 0-5.4611 1.8157-6.4307 4.5331-.9696 2.7168-.1094 5.7478 2.1299 7.5776 11.9059 9.721 38.5568 29.8323 54.9549 29.8323 2.6624 0 5.0515-.5325 7.0586-1.7069l135.264-68.7712c3.1539-2.2118 5.0106-5.9392 4.9971-9.9398-.0134-4.0141-1.9386-7.7139-5.1066-9.8848zm-141.6531 76.5818c-3.2902 1.2154-14.0218-3.7549-26.4877-11.8099 19.7562 4.7789 22.9651 4.8877 26.2144 3.3043l44.3597-23.047c2.089-1.0925 3.4682-3.1674 3.6589-5.5021.1773-2.3347-.8326-4.615-2.7168-6.0211l-35.5533-26.665.4781-.0134c8.9427 0 17.7766 2.7309 26.1459 8.2605l27.9622 14.6771c2.1165 1.1059 4.6419 1.024 6.6899-.1914l41.984-20.2208c6.8269-3.3178 12.8749-3.0995 18.896.3821l-131.6314 66.8467zm-133.1334-55.5283h27.3069c3.7683 0 6.8269-3.0586 6.8269-6.8269s-3.0586-6.8269-6.8269-6.8269h-27.3069c-3.7683 0-6.8269 3.0586-6.8269 6.8269s3.0586 6.8269 6.8269 6.8269zm54.6131 204.8h27.3069c3.7683 0 6.8269-3.0586 6.8269-6.8269v-27.3069c0-3.7683-3.0586-6.8269-6.8269-6.8269h-27.3069c-3.7683 0-6.8269 3.0586-6.8269 6.8269v27.3069c0 3.7683 3.0586 6.8269 6.8269 6.8269zm6.8269-27.3069h13.6531v13.6531h-13.6531v-13.6531zm-34.1338-122.88h-27.3062c-3.7683 0-6.8269 3.0586-6.8269 6.8269v27.3069c0 3.7683 3.0586 6.8269 6.8269 6.8269h27.3069c3.7683 0 6.8269-3.0586 6.8269-6.8269v-27.3069c-.0006-3.7683-3.0592-6.8269-6.8275-6.8269zm-6.8262 27.3069h-13.6538v-13.6531h13.6531v13.6531zm102.4 122.88h27.3069c3.7683 0 6.8269-3.0586 6.8269-6.8269v-27.3069c0-3.7683-3.0586-6.8269-6.8269-6.8269h-27.3069c-3.7683 0-6.8269 3.0586-6.8269 6.8269v27.3069c0 3.7683 3.0586 6.8269 6.8269 6.8269zm6.8262-27.3069h13.6531v13.6531h-13.6531v-13.6531zm129.7069-40.96h-34.1331v-20.48c0-3.7683-3.0586-6.8269-6.8269-6.8269h-81.92c-3.7683 0-6.8269 3.0586-6.8269 6.8269v20.48h-68.2662v-102.4c0-3.7683-3.0586-6.8269-6.8269-6.8269h-4.1779l10.6496-31.9763c.2323-.6963.3552-1.4202.3552-2.1574v-27.3056c0-3.7683-3.0586-6.8269-6.8269-6.8269h-34.1331v-34.1331c0-3.7683-3.0586-6.8269-6.8269-6.8269s-6.8269 3.0586-6.8269 6.8269v34.1331h-34.1331c-3.7683 0-6.8269 3.0586-6.8269 6.8269v27.3069c0 .7373.1229 1.4611.3552 2.1574l10.6496 31.9763h-4.1779c-3.7683 0-6.8269 3.0586-6.8269 6.8269v102.4h-6.8262c-3.7683-.0013-6.8269 3.0573-6.8269 6.8256v95.5731c0 3.7683 3.0586 6.8269 6.8269 6.8269h300.3731c3.7683 0 6.8269-3.0586 6.8269-6.8269v-95.5731c-0-3.7683-3.0586-6.8269-6.8269-6.8269zm-116.0531-13.6531h68.2669v13.6531h-68.2669v-13.6531zm-163.84-81.9066h6.8269c2.1984 0 4.2598-1.065 5.543-2.8397 1.2698-1.7888 1.625-4.0826.9286-6.1574l-13.2986-39.9085v-19.3747h68.2669v19.3606l-13.2986 39.9085c-.7098 2.089-.3552 4.3827.9286 6.1574 1.2832 1.7888 3.3453 2.8397 5.543 2.8397h6.8269v95.5731h-68.2669v-95.559zm245.76 191.1334h-27.3069v-54.6131h27.3069v54.6131zm27.3062 0h-13.6531v-61.44c0-3.7683-3.0586-6.8269-6.8269-6.8269h-40.96c-3.7683 0-6.8269 3.0586-6.8269 6.8269v61.44h-218.4531v-81.92h286.72v81.92zm-266.24-27.3069h27.3069c3.7683 0 6.8269-3.0586 6.8269-6.8269v-27.3069c0-3.7683-3.0586-6.8269-6.8269-6.8269h-27.3069c-3.7683 0-6.8269 3.0586-6.8269 6.8269v27.3069c.0006 3.7683 3.0586 6.8269 6.8269 6.8269zm6.8269-27.3069h13.6531v13.6531h-13.6531v-13.6531z"></path>
		</g>
	</g>
</svg>