<svg height="200px" width="200px" version="1.1" id="Capa_1" xmlns="http://www.w3.org/2000/svg" xmlns:xlink="http://www.w3.org/1999/xlink" viewBox="0 0 410.152 410.152" xml:space="preserve">
	<g id="SVGRepo_bgCarrier" stroke-width="0"></g>
	<g id="SVGRepo_tracerCarrier" stroke-linecap="round" stroke-linejoin="round"></g>
	<g id="SVGRepo_iconCarrier">
		<g>
			<path fill="#809BAB" d="M59.6 172v142.2h56.4v-158.4l-40.2-10.8-16.2 27zM137.591 141.2134l-1.0386 33.2844 17.22-8.94 1.0602-33.4272-17.2236 9.0594zM178.28 119.9074l-1.08 33.24 17.22-9 1.08-33.24-17.22 9zM221.9 97.1074l-1.08 33.24 17.22-9.06 1.02-33.24-17.16 9.06zM265.46 74.2474l-1.08 33.24 17.16-9.06 1.14-33.24-17.22 9.06zM309.0206 51.4972l-1.0806 33.1302 17.28-9.06.7722-22.578-4.1922-8.1894-12.7794 6.6972z"></path>
			<path fill="#2b5873" d="M353.84 70.1074l-21.3-40.56c-2.16-4.14-7.26-5.76-11.4-3.54l-213.48 111.78c-5.4-2.76-11.46-4.32-17.88-4.32-21.96 0-39.78 17.88-39.78 39.78v148.08c0 4.68 3.78 8.46 8.46 8.46h62.58c4.68 0 8.46-3.78 8.46-8.46v-124.08l220.74-115.68c4.14-2.16 5.76-7.26 3.6-11.46zM66.92 312.8674v-139.62c0-12.6 10.26-22.8 22.8-22.8 12.6 0 22.8 10.26 22.8 22.8v139.62h-45.6zM136.7 174.3874l-7.2 3.78v-4.86c0-8.94-2.94-17.1-7.86-23.7l15.96-8.34 184.2-96.4674 13.14 25.6674-9.72 5.1z"></path>
			<path fill="red" d=""></path>
		</g>
	</g>
</svg>