<svg height="200px" width="200px" version="1.1" id="Capa_1" xmlns="http://www.w3.org/2000/svg" xmlns:xlink="http://www.w3.org/1999/xlink" viewBox="0 0 410.152 410.152" xml:space="preserve">
	<g id="SVGRepo_bgCarrier" stroke-width="0"></g>
	<g id="SVGRepo_tracerCarrier" stroke-linecap="round" stroke-linejoin="round"></g>
	<g id="SVGRepo_iconCarrier">
		<g>
			<path fill="#809BAB" d="M52 81l-3 31h312l-3-31h-306m-4 41-3 30h322l-5-31h-314zM43 163l-3 30h330l-3-30h-324zM38 204l-25 35v19h13v-5h358v5h13v-19l-25-34h-333z"></path>
			<path fill="#2b5873" d="M52 81l-4 40c1 30-12 48-48 68v140h13v-57h384v57h13v-140c-20-14-44-22-48-68l-4-40h-12l7 71c8 16 22 32 44 45v61h-384v-61c15-9 36-24 44-45l8-71h-13z"></path>
		</g>
	</g>
</svg>