<svg height="200px" width="200px" version="1.1" id="Capa_1" xmlns="http://www.w3.org/2000/svg" xmlns:xlink="http://www.w3.org/1999/xlink" viewBox="0 0 410.152 410.152" xml:space="preserve">
	<g id="SVGRepo_bgCarrier" stroke-width="0"></g>
	<g id="SVGRepo_tracerCarrier" stroke-linecap="round" stroke-linejoin="round"></g>
	<g id="SVGRepo_iconCarrier">
		<g>
			<path fill="#809BAB" d="M100 150l97.5938 1.2038h.2813c20.5312-.0788 37.2375-16.8525 37.2375-37.3725 0-20.6212-16.7625-37.3837-37.3725-37.3837-2.025 0-4.0163.1688-5.9625.4838l-1.44.2363-.2025-1.44c-2.4188-18.5626-18.3488-32.5464-37.0801-32.5464-18.6525 0-34.5825 13.9275-37.0575 32.4l-.1913 1.4063-1.4063-.2025c-1.6312-.2363-3.33-.3488-5.0513-.3488-20.61 0-37.3837 16.7738-37.3837 37.3837.0001 17.0438 11.5314 31.9163 28.0351 36.18zl-.3488-6.705c-.0225-.2813-.045-.5737-.045-.8887zM300 295c-1.755 0-3.5213.1462-5.2313.4275l-1.2488.225-.18-1.2713c-2.115-16.2562-16.0763-28.5075-32.49-28.5075-16.335 0-30.2963 12.2063-32.4675 28.395l-.1688 1.2263-1.2263-.1913c-1.44-.2137-2.925-.3037-4.4325-.3037-18.0562 0-32.7488 14.6925-32.7488 32.76 0 14.9287 10.0913 27.9675 25.194 31.24l85.545 1.0575h.2363c18-.0675 32.625-14.76 32.625-32.7488.0002-18.0787-14.7035-32.76-32.7598-32.76zM191 85c18 2 30 8 35 29l-4 2c-4-22-21-27-29-27l-2-4zM202 342l2-1c4 4 12 9 24 9h62v3h-63c-20-2-25-9-25-11z"></path>
			<path fill="#2b5873" d="M300 200c0-1.7662 12.7012-24.8737 12.7012-24.8737l-22.9162.4838c-10.2825-15.2325-29.5987-22.815-48.1725-17.3925-21.33 6.2213-34.2 27.3375-30.69 48.7125l-.0225.0225c-10.53 1.4963-24.6037-11.5425-42.3675-36.27-14.1525 32.0963-4.4775 60.2325 5.1525 69.0412-13.365 5.5463-42.2662 5.22-55.6875 2.295 33.3787 39.24 64.485 42.48 94.5225 40.275 11.07 2.295 22.8262 2.0475 34.4475-1.3387 37.7663-11.025 63.7087-40.0613 52.9763-77.85.0562-1.1026.0562-2.1489.0562-3.1051zm-29.1938-2.3737c-6.3225 1.8675-12.96-1.7888-14.7825-8.1112-1.8675-6.3225 1.7775-12.9488 8.1112-14.7825 6.3225-1.8562 12.9375 1.7775 14.7825 8.1s-1.8111 12.9487-8.1112 14.7937z"></path>
			<path fill="#2b5873" opacity="0.6" d="M270.8062 197.6263c-6.3225 1.8675-12.96-1.7888-14.7825-8.1112-1.8675-6.3225 1.7775-12.9488 8.1112-14.7825 6.3225-1.8562 12.9375 1.7775 14.7825 8.1s-1.8111 12.9487-8.1112 14.7937zM266.565 180.2112l0 0c.3713.3825.6862.8212.8437 1.3613.5063 1.755-.495 3.5888-2.25 4.1063-1.0125.2925-2.025.0338-2.8125-.5288-.1125.7987-.0675 1.6425.18 2.4638.9225 3.1613 4.2188 4.9725 7.38 4.05 3.1613-.9337 4.9838-4.23 4.0612-7.4025-.9224-3.1501-4.2411-4.9725-7.4024-4.0501"></path>
			<path fill="#809BAB" d="M169 182c-3 39 5 53 17 65l4-1c-18-19-19-41-17-62l-4-2ZZM176 192c1 29 6 39 17 53l3-1c-9-12-16-25-16-47-1-4-2-5-4-5Z"></path>
		</g>
	</g>
</svg>