<svg height="200px" width="200px" version="1.1" id="Capa_1" xmlns="http://www.w3.org/2000/svg" xmlns:xlink="http://www.w3.org/1999/xlink" viewBox="0 0 410.152 410.152" xml:space="preserve">
	<g id="SVGRepo_bgCarrier" stroke-width="0"></g>
	<g id="SVGRepo_tracerCarrier" stroke-linecap="round" stroke-linejoin="round"></g>
	<g id="SVGRepo_iconCarrier">
		<g>
			<path fill="#2b5873" d="M255 130C262.6935 130 269.0325 135.79 269.8995 143.251L270 145 270 151.816C293.859 157.4845 312.738 165.862 326.631 173.692L330 175.636 330 175C330 166.7155 336.7155 160 345 160 352.6935 160 359.0325 165.79 359.8995 173.251L360 175 360 278.5C360 287.005 353.565 294.007 345.2985 294.9025L343.5 295 270.669 295C262.593 295 255.942 288.889 255.0915 281.038L255 279.331 255 272.5C255 247.6465 234.8535 227.5 210 227.5 186.0345 227.5 166.4445 246.2335 165.0765 269.8555L165 272.5 165 279.331C165 287.407 158.889 294.058 151.0395 294.9085L149.331 295 76.5 295C67.995 295 60.993 288.565 60.0975 280.2985L60 278.5 60 175C60 166.7155 66.7155 160 75 160 82.692 160 89.0325 165.79 89.8995 173.251L90 175 90 175.636C103.0605 167.92 121.11 159.385 144.1395 153.2875L150 151.816 150 145C150 136.7155 156.7155 130 165 130 172.692 130 179.0325 135.79 179.8995 143.251L180 145 180 146.6335C189.4245 145.588 199.425 145 210 145 217.932 145 225.54 145.33 232.824 145.9375L240 146.6335 240 145C240 136.7155 246.7155 130 255 130Z"></path>
			<path fill="#809BAB" d="M77 197C180 149 240 149 343 198V207C240 156 180 157 77 205V197Z"></path>
		</g>
	</g>
</svg>