<svg height="200px" width="200px" version="1.1" id="Capa_1" xmlns="http://www.w3.org/2000/svg" xmlns:xlink="http://www.w3.org/1999/xlink" viewBox="0 0 410.152 410.152" xml:space="preserve">
	<g id="SVGRepo_bgCarrier" stroke-width="0"></g>
	<g id="SVGRepo_tracerCarrier" stroke-linecap="round" stroke-linejoin="round"></g>
	<g id="SVGRepo_iconCarrier">
		<g>
			<path fill="#809BAB" d="M135.0223 90.3277h184.6661v-19.1378h-102.4057v-23.8391h-65.1367v22.8316h-17.1237v20.1453zM267.3105 141.6985v25.1817h28.2032v-25.1817h-28.2032z"></path>
			<path fill="#2b5873" d="M321.4912 64.892h-99.568v-19.3648c0-3.0576-2.4696-5.5272-5.5272-5.5272h-64.68c-3.0576 0-5.5272 2.4696-5.5272 5.5272v19.3648h-12.544c-3.0576 0-5.5272 2.4696-5.5272 5.5272v22.1088c0 3.0576 2.4696 5.5272 5.5272 5.5272h12.544v252.9184c0 .0392 0 .0392 0 .0784-.196 3.2536 1.9992 5.6448 5.5272 5.684.5488 0 64.1312 0 64.68 0 3.2928 0 5.4488-2.3912 5.5272-5.684 0-.0392 0-.0392 0-.0784v-252.9576h53.508v35.6328h-9.408c-3.0576 0-5.5272 2.4696-5.5272 5.5272v29.8704c0 3.0576 2.4696 5.5272 5.5272 5.5272h9.408v2.3912c-10.1528 2.4696-17.6792 11.6424-17.6792 22.54 0 12.8184 10.4272 23.2064 23.2064 23.2064 12.8184 0 23.2064-10.4272 23.2064-23.2064 0-3.0576-2.4696-5.5272-5.5272-5.5272-3.0576 0-5.5272 2.4696-5.5272 5.5272 0 6.7032-5.4488 12.1912-12.152 12.1912s-12.1912-5.4488-12.1912-12.1912 5.4488-12.152 12.1912-12.152c3.0576 0 5.5272-2.4696 5.5272-5.5272v-7.252h9.408c3.0576 0 5.5272-2.4696 5.5272-5.5272v-29.8704c0-3.0576-2.4696-5.5272-5.5272-5.5272h-9.408v-35.6328h35.0056c3.0576 0 5.5272-2.4696 5.5272-5.5272v-22.0696c0-3.0576-2.4696-5.5272-5.5272-5.5272zM157.2432 51.0544h53.6256v13.8376h-53.6256v-13.8376zM210.8688 171.8688l-26.8128 24.5784-26.8128-24.5784v-7.056l26.264-25.0174 27.3616 25.0174v7.056zM157.2432 149.7992v-34.1824l18.62 17.0912-18.62 17.0912zM210.8688 149.7992l-18.62-17.0912 18.62-17.0912v34.1824zM210.8688 100.6424l-26.8128 24.5784-26.8128-24.5784v-2.6264h53.6256v2.6264zM290.3664 144.7032v18.816h-18.816v-18.816h18.816zM315.964 86.9616h-176.792v-11.0152h176.792v11.0152zM210.8688 250.2688l-26.8128 24.5784-26.8128-24.5784v-7.056l26.264-25.0174 27.3616 25.0174v7.056zM210.8688 328.6688v17.3593h-53.6256v-24.4153l26.264-25.0174 27.3616 25.0174v7.056zM157.2432 228.1992v-34.1824l18.62 17.0912-18.62 17.0912zM210.8688 228.1992l-18.62-17.0912 18.62-17.0912v34.1824zM157.2432 267.3992v.1889l18.62 17.0912-18.62 17.0912zM210.8688 301.7705l-18.62-17.0912 18.62-17.0912v34.2788z"></path>
		</g>
	</g>
</svg>