<svg height="200px" width="200px" version="1.1" id="Capa_1" xmlns="http://www.w3.org/2000/svg" xmlns:xlink="http://www.w3.org/1999/xlink" viewBox="0 0 410.152 410.152" xml:space="preserve">
	<g id="SVGRepo_bgCarrier" stroke-width="0"></g>
	<g id="SVGRepo_tracerCarrier" stroke-linecap="round" stroke-linejoin="round"></g>
	<g id="SVGRepo_iconCarrier">
		<g>
			<path fill="#809BAB" d="M207.432 182.0596c3.5791-26.2885 26.1898-46.6186 53.4807-46.6186 21.7014 0 41.23 12.9857 49.7497 33.0834 1.5771 3.7198 5.8709 5.4558 9.5893 3.8794 3.7191-1.5771 5.4558-5.8695 3.8794-9.5893-10.8171-25.5157-35.6307-42.0021-63.2184-42.0021-21.9261 0-41.482 10.3271-54.0526 26.3676v-48.2818c0-19.0617 15.5078-34.5688 34.5688-34.5688 11.3015 0 21.9289 5.5993 28.4305 14.9772 2.3016 3.3201 6.8579 4.1454 10.1787 1.8438 3.3201-2.3009 4.1447-6.8579 1.8438-10.1787-9.2337-13.3196-24.3558-21.2716-40.453-21.2716-17.7744 0-33.376 9.4759-42.0217 23.6397-8.6471-14.1638-24.2487-23.6397-42.0224-23.6397-16.0958 0-31.2179 7.9513-40.4516 21.2702-2.3016 3.3201-1.477 7.8764 1.8431 10.1787 3.3194 2.3016 7.8771 1.4763 10.1787-1.8431 6.5016-9.3779 17.1297-14.9758 28.4305-14.9758 19.061 0 34.5688 15.5078 34.5688 34.5688v48.2797c-12.5706-16.0398-32.1265-26.3669-54.0526-26.3669-27.5863 0-52.4013 16.4871-63.2184 42.0028-1.5764 3.7184.1603 8.0122 3.8794 9.5893 3.7184 1.5764 8.0122-.1603 9.5893-3.8794 8.5197-20.0977 28.0483-33.0841 49.7497-33.0841 27.2909 0 49.9016 20.3301 53.4807 46.6186h16.0636zM322.2159 182.0169c-4.0397 0-7.3143 3.2746-7.3143 7.3143v.0959c0 4.0397 3.2746 7.3143 7.3143 7.3143 4.0397 0 7.3143-3.2746 7.3143-7.3143v-.0959c-0-4.0397-3.2746-7.3143-7.3143-7.3143zM76.5985 182.0169c-4.0397 0-7.3143 3.2746-7.3143 7.3143v.0959c0 4.0397 3.2746 7.3143 7.3143 7.3143 4.0397 0 7.3143-3.2746 7.3143-7.3143v-.0959c0-4.0397-3.2746-7.3143-7.3143-7.3143zM115.5017 91.488c-4.0397 0-7.3143 3.2746-7.3143 7.3143v.0959c0 4.0397 3.2746 7.3143 7.3143 7.3143 4.0397 0 7.3143-3.2746 7.3143-7.3143v-.0959c-0-4.0397-3.2746-7.3143-7.3143-7.3143zM283.3127 91.488c-4.0397 0-7.3143 3.2746-7.3143 7.3143v.0959c0 4.0397 3.2746 7.3143 7.3143 7.3143 4.0397 0 7.3143-3.2746 7.3143-7.3143v-.0959c0-4.0397-3.2746-7.3143-7.3143-7.3143z"></path>
			<path fill="#2b5873" d="M371.0857 354.0706h-130.9259v-26.3312h39.6459c32.3519 0 58.6712-26.32 58.6712-58.6712v-.4914c0-4.0397-3.2746-7.3143-7.3143-7.3143h-109.9364v-13.2174h4.1482c32.3519 0 58.6719-26.32 58.6719-58.6712 0-4.0397-3.2746-7.3143-7.3143-7.3143h-69.3-85.7633c-4.0397-.0007-7.3143 3.2739-7.3143 7.3136 0 32.3519 26.32 58.6712 58.6712 58.6712h4.1482v13.2174h-109.9364c-4.0397 0-7.3143 3.2746-7.3143 7.3143v.4914c0 32.3519 26.32 58.6712 58.6712 58.6712h39.6459v26.3312h-130.9259c-4.0397.0007-7.3143 3.2753-7.3143 7.315s3.2746 7.3143 7.3143 7.3143h343.7714c4.0397 0 7.3143-3.2746 7.3143-7.3143s-3.2746-7.3143-7.3143-7.3143zM173.0263 233.4144c-14.3633 0-27.1397-6.9125-35.1848-17.584h62.2685c4.0397 0 7.3143-3.2746 7.3143-7.3143 0-4.0397-3.2746-7.3143-7.3143-7.3143h-69.5037c-.4123-1.477-.7595-2.9813-1.0164-4.5157h139.2202c-3.4951 20.8159-21.6419 36.729-43.4357 36.729h-52.3481zM206.5976 248.043v13.1194h-14.7952v-13.1194h14.7952zM118.5943 313.1108c-11.0159-.0007-21.0994-4.0677-28.8316-10.7772h59.7541c4.0397 0 7.3143-3.2746 7.3143-7.3143s-3.2746-7.3143-7.3143-7.3143h-70.8148c-1.7311-3.6911-2.9736-7.6559-3.6232-11.8153h248.2424c-3.2886 21.0581-21.5502 37.2211-43.5155 37.2211h-161.2114zM225.5312 354.0706h-52.6631v-26.3312h52.6631v26.3312zM173.2762 287.705h-.0959c-4.0397 0-7.3143 3.2746-7.3143 7.3143 0 4.0397 3.2746 7.3143 7.3143 7.3143h.0959c4.0397 0 7.3143-3.2746 7.3143-7.3143 0-4.0397-3.2746-7.3143-7.3143-7.3143zM223.8687 201.2011h-.0959c-4.0397 0-7.3143 3.2746-7.3143 7.3143 0 4.0397 3.2746 7.3143 7.3143 7.3143h.0959c4.0397 0 7.3143-3.2746 7.3143-7.3143 0-4.0397-3.2746-7.3143-7.3143-7.3143zM173.2762 287.705h-.0959c-4.0397 0-7.3143 3.2746-7.3143 7.3143 0 4.0397 3.2746 7.3143 7.3143 7.3143h.0959c4.0397 0 7.3143-3.2746 7.3143-7.3143-0-4.0397-3.2746-7.3143-7.3143-7.3143zM223.8687 201.2011h-.0959c-4.0397 0-7.3143 3.2746-7.3143 7.3143 0 4.0397 3.2746 7.3143 7.3143 7.3143h.0959c4.0397 0 7.3143-3.2746 7.3143-7.3143 0-4.0397-3.2746-7.3143-7.3143-7.3143z"></path>
		</g>
	</g>
</svg>