<svg height="200px" width="200px" version="1.1" id="Capa_1" xmlns="http://www.w3.org/2000/svg" xmlns:xlink="http://www.w3.org/1999/xlink" viewBox="0 0 410.152 410.152" xml:space="preserve">
	<g id="SVGRepo_bgCarrier" stroke-width="0"></g>
	<g id="SVGRepo_tracerCarrier" stroke-linecap="round" stroke-linejoin="round"></g>
	<g id="SVGRepo_iconCarrier">
		<g>
			<path fill="#809BAB" d="M87 72l5 34 19 12 22-14 1-32h-47ZzM266 73l4 34 19 11 21-13 2-32h-46Zz"></path>
			<path fill="#2b5873" d="M330.82 75.059c0-8.591-11.412-15.914-27.416-18.727v-9.593h-5.099c-3.78-26.387-26.522-46.739-53.938-46.739-18.362 0-34.621 9.138-44.5 23.095-9.879-13.957-26.137-23.095-44.5-23.095-27.416 0-50.158 20.352-53.938 46.739h-5.099v9.593c-16.003 2.813-27.416 10.136-27.416 18.727h14.478c-.496 2.851-.764 5.782-.764 8.748 0 20.975 12.668 38.039 28.239 38.039s28.239-17.064 28.239-38.039c0-2.966-.268-5.897-.763-8.748h14.477c0-8.591-11.412-15.914-27.416-18.727v-9.593h-3.646c3.532-15.297 17.255-26.739 33.609-26.739 19.023 0 34.5 15.477 34.5 34.5v309.234h-17.939c-19.886 0-36 16.119-36 36h127.876c0-19.881-16.113-36-35.995-36h-17.942v-309.234c0-19.023 15.477-34.5 34.5-34.5 16.355 0 30.077 11.442 33.609 26.739h-3.646v9.593c-16.003 2.813-27.416 10.136-27.416 18.727h14.478c-.496 2.851-.764 5.782-.764 8.748 0 20.975 12.668 38.039 28.239 38.039 15.571 0 28.239-17.064 28.239-38.039 0-2.966-.268-5.897-.763-8.748h14.477zM131.107 83.806c0 16.563-9.079 30.039-20.239 30.039s-20.24-13.475-20.24-30.039c0-2.989.31-5.929.898-8.748h38.683c.588 2.819.898 5.758.898 8.748zM309.107 83.806c0 16.563-9.079 30.039-20.239 30.039-11.16 0-20.239-13.475-20.239-30.039 0-2.989.31-5.929.898-8.748h38.683c.587 2.819.897 5.758.897 8.748z"></path>
			<path stroke="#809BAB" stroke-width="3px" d="M79 125l-18 68M111 131v72M139 125l19 64M289 136v66M265 129l-14 58M312 128l15 58z"></path>
			<path fill="#809BAB" d="M210 370v5h17q20 0 20 19h4q1-24-24-24h-17Z"></path>
		</g>
	</g>
</svg>