<svg height="200px" width="200px" version="1.1" id="Capa_1" xmlns="http://www.w3.org/2000/svg" xmlns:xlink="http://www.w3.org/1999/xlink" viewBox="0 0 410.152 410.152" xml:space="preserve">
	<g id="SVGRepo_bgCarrier" stroke-width="0"></g>
	<g id="SVGRepo_tracerCarrier" stroke-linecap="round" stroke-linejoin="round"></g>
	<g id="SVGRepo_iconCarrier">
		<g>
			<path fill="#809BAB" d="M29.666 130.912v155.196h144.652l-20.1 44.812h37.893l26.69-44.812h156.843v-154.207h-251.74l-49.096-47.778-26.031 24.712 15.715 22.053h-34.826z7.8175 116.724 266.119 114.6275 266.119H73.509C71.4135 266.119 69.714 267.8175 69.714 269.914Z"></path>
			<path fill="#2b5873" d="M71.79 80.3465l-26.114 26.1135c-1.4045 1.4055-1.487 3.657-.191 5.1615l12.926 14.9925h-29.616c-2.0965 0-3.795 1.6985-3.795 3.795v156.207c0 2.0965 1.6985 3.795 3.795 3.795h140.717l-19.8895 38.8295c-.6025 1.175-.5495 2.5815.139 3.7095.6895 1.128 1.916 1.8155 3.238 1.8155h39.0815c1.311 0 2.5295-.677 3.222-1.79l26.485-42.564h150.769q5.022-.0645 5.0565-3.2505v-156.751q-.15-3.795-4.365-3.795h-249.8245l-11.7085-11.709c-.001-.001-.0015-.0015-.0025-.0025l-34.5555-34.556c-1.483-1.483-3.8855-1.483-5.3675-.001zM178.0395 290.411h8.9135c-2.023 10.2295-16.745 26.998-27.2395 36.7645h-.506l18.832-36.7645zM189.973 327.1755h-19.413c8.6725-8.852 22.373-24.536 24.043-36.7645h18.2465l-22.8765 36.7645zM119.1685 133.0925c.712.7115 1.677 1.111 2.684 1.111h250.7195v13.781h-165.837c-2.0965 0-3.795 1.6985-3.795 3.795 0 2.0965 1.6985 3.795 3.795 3.795h165.837v20.5345h-191.0625c-4.5435-4.472-21.396-19.8945-39.9965-22.31-2.078-.2695-3.982 1.196-4.252 3.275-.2745 2.078 1.1955 3.982 3.275 4.252 18.6305 2.419 36.4575 21.0015 36.6335 21.187.7165.757 1.7135 1.186 2.7555 1.186h192.647v19.506h-176.6675c-2.0965 0-3.795 1.6985-3.795 3.795 0 2.0965 1.6985 3.795 3.795 3.795h176.6675v18.683h-128.1585c-2.0965 0-3.795 1.6985-3.795 3.795s1.6985 3.795 3.795 3.795h128.1585v18.683h-163.692c-2.0965 0-3.795 1.6985-3.795 3.795s1.6985 3.795 3.795 3.795h163.692v19.4795h-339.982v-25.2625h64.5395c2.0965 0 3.795-1.6985 3.795-3.795s-1.6985-3.795-3.795-3.795h-64.5395v-19.4285h44.5505c6.9075 1.5205 79.0655 16.383 93.871-22.1795.1715-.448.253-.9075.253-1.3595 0-1.5255-.9265-2.964-2.4355-3.544-1.9565-.751-4.1515.226-4.903 2.1825-12.875 33.535-84.797 17.571-85.522 17.405-.277-.0625-.56-.095-.844-.095h-44.97v-25.509h17.7875c2.0965 0 3.795-1.6985 3.795-3.795s-1.6985-3.795-3.795-3.795h-17.7875v-31.91h64.5395c2.0965 0 3.795-1.6985 3.795-3.795s-1.6985-3.795-3.795-3.795h-64.5395v-16.147h34.1035c1.484 0 2.832-.8655 3.45-2.2145.618-1.349.393-2.9345-.576-4.0585l-15.9285-18.474c7.5 3.1135 29.9495 11.5485 53.805 11.912l11.7245 11.7245zM99.4005 113.3245c-16.8835-1.5825-32.3625-6.814-40.0705-9.7845l15.143-15.143 24.9275 24.9275zM72.6175 186.854c-3.889 4.173-3.0405 7.6565-2.187 9.359 5.09 10.18 32.963 18.5405 38.498 20.113 2.016.573 4.115-.5975 4.6875-2.6135.571-2.014-.5975-4.1145-2.6125-4.6875-12.2205-3.4745-30.498-10.651-33.636-15.9345.386-.7935 2.266-2.9675 7.6295-5.7375 14.805-7.6445 39.762-12.172 54.2665-6.1535 8.419 3.493 13.042 8.1735 12.666 12.8375-.4255 5.3855-7.0215 10.658-16.0395 12.822-2.0375.4895-3.292 2.537-2.805 4.576.4895 2.038 2.538 3.294 4.576 2.805 12.368-2.968 21.1425-10.8465 21.835-19.6045.0285-.353.0445-.729.0445-1.1265 0-4.986-2.5885-13.188-17.3685-19.3205-13.437-5.575-30.4925-3.02-39.463-1.001-13.3415 3.004-25.153 8.368-30.0915 13.6665zM145.134 256.023c-1.9465.7785-2.8915 2.99-2.1135 4.933.778 1.946 2.9865 2.8925 4.9325 2.114 1.3175-.5275 32.4025-13.043 44.38-25.0215 10.0165-10.0155 28.5795-7.1175 28.76-7.088 2.0675.3445 4.0225-1.0525 4.368-3.1195.035-.2115.052-.4215.052-.6285 0-1.822-1.3155-3.429-3.1715-3.7395-.9165-.1525-22.5755-3.5905-35.375 9.208-10.878 10.879-41.5245 23.218-41.8325 23.342zM69.714 269.914c0 2.0965 1.6985 3.795 3.795 3.795h41.1185c2.0965 0 3.795-1.6985 3.795-3.795 0-2.0965-1.6985-3.795-3.795-3.795h-41.1185c-2.0955 0-3.795 1.6985-3.795 3.795z"></path>
		</g>
	</g>
</svg>