<svg height="200px" width="200px" version="1.1" id="Capa_1" xmlns="http://www.w3.org/2000/svg" xmlns:xlink="http://www.w3.org/1999/xlink" viewBox="0 0 410.152 410.152" xml:space="preserve">
	<g id="SVGRepo_bgCarrier" stroke-width="0"></g>
	<g id="SVGRepo_tracerCarrier" stroke-linecap="round" stroke-linejoin="round"></g>
	<g id="SVGRepo_iconCarrier">
		<g>
			<path fill="#2b5873" d="M134.219 165h-74.219c-7.8515 0-14.219 6.3865-14.219 14.219l0 130.7815c0 7.832 7.1485 15 15 15h9.219c2.383 14.1795 14.6875 25 29.5315 25 14.844 0 27.1485-10.8205 29.5315-25H135l20.469 0c2.383 14.1795 14.6875 25 29.5315 25 14.844 0 27.1485-10.8205 29.5315-25l46.25 0 14.218-.0005 0-146c0-8.008-6.3085-14.5315-14.0625-14.5315zM275 200l0 125c2.4025 14.16 15.1565 25 30 25 14.844 0 27.1485-10.84 29.5315-25l10.469 0c7.8515 0 15-7.1485 15-15l0-48.125c0-10.0585-7.246-20.332-8.125-21.5625l-20.7815-27.8125c-4.7655-5.742-12.246-12.5-21.094-12.5zM300 225l27.969 0 15.9375 21.25c1.699 2.4025 6.094 9.7655 6.094 15.625l0 3.125-50 0c-5 0-10-5-10-10l0-20c0-5.5275 4.9995-10 9.9995-10zM185 300c11.035 0 20 8.965 20 20 0 11.035-8.965 20-20 20-11.035 0-20-8.965-20-20 0-11.035 8.965-20 20-20zM100 300c11.035 0 20 8.965 20 20 0 11.035-8.965 20-20 20-11.035 0-20-8.965-20-20 0-11.035 8.965-20 20-20zM305 300c11.035 0 20 8.965 20 20 0 11.035-8.965 20-20 20-11.035 0-20-8.965-20-20 0-11.035 8.965-20 20-20z"></path>
			<path fill="#809BAB" d="M60 170q-10 0-10 10v110h220v-110q0-10-10-10h-200z"></path>
		</g>
	</g>
</svg>