<svg height="200px" width="200px" version="1.1" id="Capa_1" xmlns="http://www.w3.org/2000/svg" xmlns:xlink="http://www.w3.org/1999/xlink" viewBox="0 0 410.152 410.152" xml:space="preserve">
	<g id="SVGRepo_bgCarrier" stroke-width="0"></g>
	<g id="SVGRepo_tracerCarrier" stroke-linecap="round" stroke-linejoin="round"></g>
	<g id="SVGRepo_iconCarrier">
		<g>
			<path fill="#809BAB" d="M179.497 236.3437l-105.0374-12.56c-2.8602-.3398-5.6198 1.1398-6.9101 3.7101-.7898 1.5699-1.5098 4.1402-.4102 7.4202 1.8099 5.3997 8.6899 13.7491 46.0691 34.7795 10.16 5.7203 20.24 11.0342 27.7299 14.9043l149.8857-77.1358c-20.118-1.153-72.654-22.808-111.33 28.882z"></path>
			<path fill="#2b5873" d="M319.8842 270.9939c-26.3494 0-47.7786 21.4342-47.7786 47.7837 0 26.3392 21.4291 47.7792 47.7786 47.7792 26.3501 0 47.7894-21.44 47.7894-47.7792 0-26.3494-21.4394-47.7837-47.7894-47.7837zM87.7888 270.9939c-26.3494 0-47.7888 21.4342-47.7888 47.7837 0 26.3392 21.44 47.7792 47.7888 47.7792s47.7792-21.44 47.7792-47.7792c0-26.3494-21.4298-47.7837-47.7792-47.7837zM340.2144 228.0237c-3.3798-15.9699-13.7702-38.9696-44.0096-57.8688-2.6598-1.6602-6.0992-1.2998-8.3494.8698l-13.6602 13.1296c-2.1498 2.0698-2.7098 5.2998-1.3702 7.9699l6.9197 13.84c-.7377 6.3658-43.4837 35.4668-100.2507 30.3778-12.297 4.26-33.071 12.35-38.554 48.259l-56.199 28.0698c-2.7002 1.3402-4.1901 4.2899-3.68 7.2602.5101 2.96 2.8902 5.2499 5.8803 5.6198l52.2893 6.5299 12 11.9994c1.28 1.28 3.0099 2 4.8198 2h102.3981c1.84 0 3.6102-.7398 4.8902-2.0602 1.28-1.3101 1.9802-3.0899 1.9398-4.9299-.0102-.3501-.6099-35.0694 20.72-57.0086 11.4893-11.8144 27.4989-17.8445 47.5686-17.9149 3.0298-.0102 5.6902-2.0198 6.5299-4.9299.1587-.5498 3.849-13.6602.119-31.2096z"></path>
			<path fill="#FFFFFF" d="M319.8842 294.8781c-13.1693 0-23.8893 10.7194-23.8893 23.8995 0 13.1699 10.72 23.8893 23.8893 23.8893 13.1802 0 23.9002-10.7194 23.9002-23.8893 0-13.1802-10.72-23.8995-23.9002-23.8995zM87.7888 294.8781c-13.1795 0-23.8995 10.7194-23.8995 23.8995 0 13.1699 10.72 23.8893 23.8995 23.8893 13.1699 0 23.8899-10.7194 23.8899-23.8893 0-13.1802-10.72-23.8995-23.8899-23.8995z"></path>
			<path fill="#809BAB" d="M319.8944 325.5974c-2.4102 0-4.7501-1.28-5.9898-3.5398l-27.3088-49.8438c-1.8099-3.3101-.6003-7.4502 2.7098-9.2704 3.2992-1.8099 7.4496-.6003 9.2595 2.7098l27.3094 49.8438c1.8099 3.2998.6003 7.4502-2.7098 9.2602-1.0406.5702-2.1606.8403-3.2704.8403z"></path>
		</g>
	</g>
</svg>