<svg height="200px" width="200px" version="1.1" id="Capa_1" xmlns="http://www.w3.org/2000/svg" xmlns:xlink="http://www.w3.org/1999/xlink" viewBox="0 0 410.152 410.152" xml:space="preserve">
	<g id="SVGRepo_bgCarrier" stroke-width="0"></g>
	<g id="SVGRepo_tracerCarrier" stroke-linecap="round" stroke-linejoin="round"></g>
	<g id="SVGRepo_iconCarrier">
		<g>
			<path fill="#809BAB" d="M49.5 180l136.6942-119.4345 36.5895.6907 146.2927 103.3125 2.7615 56.61-141.5265 55.23-162.9285-47.6355L49.5 180Z"></path>
			<path fill="#2b5873" d="M385.0365 167.7473C350.127 107.9797 290.7817 15 207 15 123.2182 15 63.873 107.9797 28.9635 167.7473c-34.9095 59.7757 45.3817 128.85 178.0365 128.85C339.6547 296.598 419.9452 227.523 385.0365 167.7473zM95.0048 224.4548c-18.4778 0-33.4567-14.9797-33.4567-33.45 0-18.4845 14.979-33.4567 33.4567-33.4567 18.4703 0 33.45 14.973 33.45 33.4567C128.4547 209.475 113.475 224.4548 95.0048 224.4548zM161.0385 110.7135c0-21.375 17.325-38.6932 38.6932-38.6932 21.3608 0 38.6865 17.3182 38.6865 38.6932 0 21.3615-17.3257 38.6865-38.6865 38.6865C178.3635 149.4 161.0385 132.075 161.0385 110.7135zM227.073 261.1095c-15.9067 0-28.8-12.8932-28.8-28.8 0-15.9067 12.8932-28.8 28.8-28.8 15.9067 0 28.8 12.8932 28.8 28.8C255.873 248.2155 242.9798 261.1095 227.073 261.1095zM330.7568 212.025c-16.6305-2.6925-28.869-18.798-26.223-35.1683 2.5507-15.7432 17.7682-24.156 33.0405-19.629 14.2162 4.2203 24.0345 18.4635 22.746 32.5028C358.9837 204.2587 346.1655 214.5202 330.7568 212.025z"></path>
			<path fill="#809BAB" d="M160.4588 314.6182c0 19.6365 0 34.077 0 44.8155 0 20.946 9.3 39.5663 46.5405 39.5663 37.2413 0 46.5405-18.6203 46.5405-39.5663 0-10.7385 0-25.179.4602-57.4337-15 1.8817-30.5452 2.925-46.5405 2.925C188 306 177 303 160 301z"></path>
		</g>
	</g>
</svg>