<svg height="200px" width="200px" version="1.1" id="Capa_1" xmlns="http://www.w3.org/2000/svg" xmlns:xlink="http://www.w3.org/1999/xlink" viewBox="0 0 410.152 410.152" xml:space="preserve">
	<g id="SVGRepo_bgCarrier" stroke-width="0"></g>
	<g id="SVGRepo_tracerCarrier" stroke-linecap="round" stroke-linejoin="round"></g>
	<g id="SVGRepo_iconCarrier">
		<g>
			<path fill="#809BAB" stroke="#2b5873" stroke-width="5px" d="M113.94 45.83l-0 321.3 199.08 0 0-321.3-199.08-0zM187.65 307.28a.63.63 90 0151.66 0zM173.16 206.48a.63.63 90 0080.64 0A.63.63 90 00173.16 206.48zM113.94 206.48l199.08 0zM187.65 105.68a.63.63 90 0051.66 0z"></path>
			<path fill="#ffffff" stroke="#2b5873" stroke-width="5px" d="M163.71 367.13l0-59.85h100.17l-0 59.85zM187.65 367.13l0-23.31 51.66 0-0 23.31zM187.65 45.83l-0 23.31 51.66 0 0-23.31zM163.71 45.83l-0 59.85h100.17l0-59.85h-100.17z"></path>
		</g>
	</g>
</svg>

