<svg height="200px" width="200px" version="1.1" id="Capa_1" xmlns="http://www.w3.org/2000/svg" xmlns:xlink="http://www.w3.org/1999/xlink" viewBox="0 0 410.152 410.152" xml:space="preserve">
	<g id="SVGRepo_bgCarrier" stroke-width="0"></g>
	<g id="SVGRepo_tracerCarrier" stroke-linecap="round" stroke-linejoin="round"></g>
	<g id="SVGRepo_iconCarrier">
		<g>
			<path fill="#809BAB" d="M383.3668 234.463c-1.1851-4.842-6.1222-7.794-10.8994-6.6154l-14.0112 3.4344-59.6023 14.3028-3.8959-14.7434c-.306-2.209-2.5646-10.3572-11.3083-7.8602-3.78 1.4436-6.0631 5.3885-5.0717 9.4205l4.2552 17.3916-60.5261 14.8147c-3.8398-4.1026-9.2628-6.7032-15.3252-6.7032-9.6552 0-17.6976 6.5333-20.173 15.3965l-57.4747 14.0753-4.2617-17.3974c-.9792-3.9802-4.7254-6.4447-8.6861-6.0228-3.9542.6185-4.9601 1.1844-6.7586 5.3309l-.3197 4.608 4.6066 16.9466-74.209 18.4759c-4.8355 1.1851-7.7998 6.0631-6.6132 10.8994 1.1909 4.8722 6.1099 7.794 10.8994 6.6146l46.4335-11.3688 25.3217-6.1978 74.1262-18.149c1.5854 2.219 3.5813 4.1026 5.8817 5.5642l-17.9719 28.4026c-2.4538 3.8851-2.6064 8.7919-.3888 12.8189 2.2133 4.0212 6.4454 6.5218 11.0354 6.5218h37.1074c4.5907 0 8.8222-2.5006 11.0354-6.5218 2.2183-4.027 2.0657-8.9338-.3881-12.8189l-17.9719-28.4026c5.0947-3.235 8.6458-8.5874 9.5148-14.8327l77.2783-18.9166 25.3202-6.1985 46.4278-11.3695c4.8355-1.1866 7.7983-6.0646 6.6132-10.9001z"></path>
			<path fill="#2b5873" d="M357.1156 231.5736c2.5027-1.1758 2.4149-2.538 2.1967-3.9118-.7042-2.934-13.2358-55.4314-14.2682-58.2552-1.867-7.9351-11.952-13.6289-21.1543-11.3926-8.969 2.201-14.621 10.7582-13.5166 19.7035l-28.0512 26.9057c-4.7887 4.5965-4.9478 12.2033-.3521 16.9985.7632.792 1.7028 1.2499 2.6064 1.7842 1.9562 1.5905 3.8318 1.8878 8.118 1.5307 2.2918-.3866 4.5245-1.2499 6.251-2.9765l17.8675-17.1209 4.5094 18.7726-20.3407 4.999c-3.029.5602-7.5564 3.8297-8.6422 5.9638-.5652 1.4515-2.1787 2.0167.1598 8.3887l13.433 20.3926 14.621 19.7683c3.9499 5.3345 11.4754 6.4562 16.8156 2.5186 5.3359-3.9499 6.462-11.4811 2.5178-16.817l-8.6342-11.6683-12.2501-16.3912zM316.0554 154.6373c12.0982-2.9585 19.4926-15.161 16.529-27.2462-2.9592-12.0974-15.1553-19.4933-27.2412-16.5348-12.1025 2.9642-19.4926 15.1546-16.5341 27.252C291.7727 150.1999 303.9695 157.6015 316.0554 154.6373zM116.4088 263.9513c.4997-.8582 1.0109-1.7381 1.3104-2.7533 1.8605-6.3742-1.7964-13.0478-8.1648-14.9141l-37.3183-10.9051c-3.1586-8.447-12.0859-13.4474-21.096-11.2291-9.0914 2.2248-15.5002 11.903-13.4993 19.8511.3874 2.8757 14.2625 58.2782 14.2625 58.2782.4399 1.3147.9864 2.5654 3.6482 3.3264l38.6042-9.6199-3.7202 19.2658-2.2752 14.5512c-1.0332 6.5621 3.4387 12.713 9.9965 13.752 6.6089 1.0325 12.7246-3.4754 13.752-9.995l3.8383-24.2942 3.4992-24.7054q1.1736-12.7908-15.0797-8.339l-20.5236 4.9658-4.5842-18.7812c2.7346.9979 24.3151 7.339 27.1174 7.4412 4.9082-.4478 7.1237-1.8612 10.2989-5.832zM55.9058 218.3393c12.0917-2.9642 19.4926-15.1603 16.5283-27.2527-2.9578-12.0967-15.1546-19.4933-27.2462-16.5348C33.0918 177.5167 25.6895 189.7128 28.653 201.8045 31.618 213.9026 43.8141 221.297 55.9058 218.3393z"></path>
		</g>
	</g>
</svg>