<svg height="200px" width="200px" version="1.1" id="Capa_1" xmlns="http://www.w3.org/2000/svg" xmlns:xlink="http://www.w3.org/1999/xlink" viewBox="0 0 410.152 410.152" xml:space="preserve">
	<g id="SVGRepo_bgCarrier" stroke-width="0"></g>
	<g id="SVGRepo_tracerCarrier" stroke-linecap="round" stroke-linejoin="round"></g>
	<g id="SVGRepo_iconCarrier">
		<g>
			<path stroke="#809BAB" stroke-width="2px" d="M40 112 319 20M333 20 40 117M40 197 397 82M40 202 397 87M40 273 397 161M397 166 40 279"></path>
			<path fill="#2b5873" d="M356.508 165.5368c-.0016-.02-.0024-.04-.0048-.0592-.0608-.58-.204-1.1328-.4184-1.652-.012-.0296-.0232-.0584-.036-.0872-.2152-.4984-.4936-.9584-.8296-1.376-.0376-.0472-.076-.0936-.1152-.1392-.2016-.236-.42-.456-.656-.6584-.0352-.0304-.0672-.0632-.1032-.0928-.1136-.0928-.232-.1784-.352-.2632-.0928-.0656-.1872-.1264-.284-.1864-.1448-.0904-.2912-.1752-.444-.2528-.1584-.0816-.32-.1568-.4856-.2232-.0488-.0192-.0936-.0472-.1424-.0656l-96.9232-41.692V85.3688h88.8224v25.192c0 3.3136 2.6864 6 6 6s6-2.6864 6-6V79.6864c.0056-.1056.016-.2104.016-.3176 0-.1944-.0264-.3808-.0448-.5704-.0016-.02-.0024-.04-.0048-.0592-.0608-.58-.204-1.1328-.4184-1.652-.012-.0296-.0232-.0584-.036-.0872-.2152-.4984-.4936-.9584-.8296-1.376-.0376-.0472-.076-.0936-.1152-.1392-.2016-.236-.42-.456-.656-.6584-.0352-.0304-.0672-.0632-.1032-.0928-.1136-.0928-.232-.1784-.352-.2632-.0928-.0656-.1872-.1264-.284-.1864-.1448-.0904-.2912-.1752-.444-.2528-.1584-.0816-.32-.1568-.4856-.2232-.0488-.0192-.0936-.0472-.1424-.0656L252.0856 30.488C251.356 30.1752 250.556 30 249.7144 30H166.2696c-.8416 0-1.6416.1752-2.3688.4872C163.8984 30.488 63.136 73.832 63.136 73.832c-.0184.008-.0368.016-.0552.024-.0664.0288-.1248.0608-.1856.0896-.1584.0752-.3128.1552-.464.2432-.1048.0608-.2096.1216-.3096.188-.052.0344-.1.0728-.1512.1088-.1016.072-.2016.1448-.2976.2224-.048.0392-.0944.0808-.1416.1216-.0928.08-.1832.1608-.2704.2464-.0472.0456-.092.0928-.1368.14-.0808.084-.1592.1696-.2344.2584-.0464.0536-.0912.1088-.1352.164-.068.0856-.1328.1728-.196.2616-.0448.0624-.0888.1248-.1312.1888-.056.0864-.108.1752-.16.2632-.0408.0704-.0832.1392-.1216.2112-.0488.0928-.092.188-.1368.2832-.0488.1056-.096.212-.1392.32-.0496.1248-.0976.2496-.1384.3776-.0232.0728-.0416.148-.0616.2224-.0296.1056-.0584.212-.0824.3192-.016.0728-.028.1464-.0416.22-.0208.116-.0392.232-.0536.3496-.008.068-.0152.136-.0208.2048-.0112.1296-.0168.2592-.02.3896-.0008.0408-.0064.08-.0064.12v31.192c0 3.3136 2.6864 6 6 6s6-2.6864 6-6v-25.192h88.8224v33.4184L63.136 160.5696c-.0184.008-.0368.016-.0552.024-.0664.0288-.1248.0608-.1856.0896-.1584.0752-.3128.1552-.464.2432-.1048.0608-.2096.1216-.3096.188-.052.0344-.1.0728-.1512.1088-.1016.072-.2016.1448-.2976.2224-.048.0392-.0944.0808-.1416.1216-.0928.08-.1832.1608-.2704.2464-.0472.0456-.092.0928-.1368.14-.0808.084-.1592.1696-.2344.2584-.0464.0536-.0912.1088-.1352.164-.068.0856-.1328.1728-.196.2616-.0448.0624-.0888.1248-.1312.1888-.056.0864-.108.1752-.16.2632-.0408.0704-.0832.1392-.1216.2112-.0488.0928-.092.188-.1368.2832-.0488.1056-.096.212-.1392.32-.0496.1248-.0976.2496-.1384.3776-.0232.0728-.0416.148-.0616.2224-.0296.1056-.0584.212-.0824.3192-.016.0728-.028.1464-.0416.22-.0208.116-.0392.232-.0536.3496-.008.068-.0152.136-.0208.2048-.0112.1296-.0168.2592-.02.3896-.0008.0408-.0064.08-.0064.12v31.192c0 3.3136 2.6864 6 6 6s6-2.6864 6-6v-25.192h86.6536L87.2184 398.2048c-.0064.0208-.008.0424-.0144.0632-.0856.2856-.152.5768-.1944.8704-.0032.0224-.0088.044-.012.0664-.0384.2872-.0496.5768-.0464.8664.0008.0576 0 .1144.0024.172.0112.2808.0424.56.0928.8376.0088.048.02.0944.0296.1424.1184.572.3224 1.1296.6104 1.656.0224.0408.0432.0808.0664.1208.1424.2456.3024.4832.4824.712.0336.0424.0704.0824.1048.124.0736.0888.144.1792.2232.264.1008.108.2096.2056.3168.304.0328.0304.0624.0624.096.092.228.2016.4696.38.7192.5408.02.0128.036.0296.056.0424.0272.0168.056.028.0832.044.1984.12.4008.2296.6088.3248.0304.0144.06.0312.0912.0448.2352.1024.4744.1888.7184.2608.0552.016.1112.028.1672.0424.1896.0496.3816.0904.5744.1208.0704.0112.1408.0232.2112.032.2416.0296.4848.0504.7288.0504 1.2968 0 2.5864-.4112 3.6648-1.2416.1528-.1176.3008-.2432.444-.3768l170.9304-159.9704 42.5208 135.6312-80.8448-75.6608c-2.42-2.264-6.2168-2.1384-8.4808.2808s-2.1384 6.2168.2808 8.4808l97.4896 91.2376c1.1424 1.0688 2.6168 1.6192 4.1016 1.6192 1.1016 0 2.2088-.3024 3.1912-.92 2.3072-1.4504 3.348-4.2736 2.5328-6.8744l-70.8816-226.0976h86.6536v25.192c0 3.3136 2.6864 6 6 6s6-2.6864 6-6v-30.8752c.0056-.1056.016-.2104.016-.3176C356.5528 165.9136 356.5264 165.7264 356.508 165.5368zM172.2696 160.1072v-31.3688h71.4456v31.3688H172.2696zM255.7144 73.3688V45.1128l65.6896 28.2568H255.7144zM172.2696 42h71.4456v31.3688h-71.4456V42zM94.58 73.3688l65.6896-28.2568v28.2568H94.58zM243.7144 85.3688v31.3688h-71.4456V85.3688H243.7144zM160.2696 131.8504v28.2568H94.58L160.2696 131.8504zM148.0096 244.4104l51.2016 47.9184-93.7216 87.712L148.0096 244.4104zM263.9912 231.7032l-55.9992 52.408-55.9984-52.408 18.6832-59.596h74.6312L263.9912 231.7032zM255.7144 160.1072v-28.2568l65.6896 28.2568H255.7144zM229.6 304.4 208 284.4 199.2 292.4 221.6 313.2 229.6 304.4Z"></path>
		</g>
	</g>
</svg>