<svg height="200px" width="200px" version="1.1" id="Capa_1" xmlns="http://www.w3.org/2000/svg" xmlns:xlink="http://www.w3.org/1999/xlink" viewBox="0 0 410.152 410.152" xml:space="preserve">
	<g id="SVGRepo_bgCarrier" stroke-width="0"></g>
	<g id="SVGRepo_tracerCarrier" stroke-linecap="round" stroke-linejoin="round"></g>
	<g id="SVGRepo_iconCarrier">
		<g>
			<path fill="#809BAB" d="M196.25 131.25V26.5125a18.75 18.75 90 0137.5 0V37.5h93.75a18.75 18.75 90 0115 7.5l18.2813 24.375a9.375 9.375 90 010 11.25L342.5 105a18.75 18.75 90 01-15 7.5H233.75v300H196.25v-206.25H102.5a18.75 18.75 90 01-15-7.5L69.2188 174.375a9.375 9.375 90 010-11.25L87.5 138.75A18.75 18.75 90 01102.5 131.25h93.75z"></path>
			<path fill="#2b5873" d="M327.5 56.25a18.75 18.75 90 0118.75 18.75 18.75 18.75 90 01-18.75 18.75v-37.5M102.5 150V187.5A18.75 18.75 90 0183.75 168.75 18.75 18.75 90 01102.5 150M177.5 412.5C175.3812 410.2875 173 406.1438 166.8125 405.4125 172.2313 403.425 176.9188 406.8 179.75 407.8875 184.8687 407.8875 178.325 404.625 173.2063 397.7625 185.4125 398.625 184.6306 402.7631 189.5562 405.4125 196.3062 400.4813 190.5688 395.0494 187.8125 390.675 197.0131 394.2938 200.7687 391.4437 208.8875 403.1438 208.175 394.8187 210.8994 389.7562 213.725 386.7562 216.8375 389.1244 217.5313 396.9937 226.7 401.25 233.5438 395.7938 233.7744 387.6 234.8562 379.575 244.325 386.6437 245.1369 389.625 243.125 398.85 252.05 395.25 256.3756 390.2625 257.7125 396.0187 258.1438 393.6694 250.5313 400.3688 250.1 405.2813 257.8944 407.0494 261.7438 408.75 264.9688 412.6125H177.5m51.3-288.9937v225h-4.6875v-225Z"></path>
		</g>
	</g>
</svg>