<svg height="200px" width="200px" version="1.1" id="Capa_1" xmlns="http://www.w3.org/2000/svg" xmlns:xlink="http://www.w3.org/1999/xlink" viewBox="0 0 410.152 410.152" xml:space="preserve">
	<g id="SVGRepo_bgCarrier" stroke-width="0"></g>
	<g id="SVGRepo_tracerCarrier" stroke-linecap="round" stroke-linejoin="round"></g>
	<g id="SVGRepo_iconCarrier">
		<g>
			<path fill="#809BAB" d="M41.9 183.1l16.8 133 94.5 14 8.4-51.8 80.5-.7 9.8 53.9 100.1-21 14-128.1c-116.9 23.1-192.5 24.5-324.1.7zM44 93.5v17.5l12.6-9.1-12.6-8.4zM208.5 78.8v17.5l12.6-9.1-12.6-8.4zM357.6 93.5v17.5l12.6-9.1-12.6-8.4z"></path>
			<path fill="#2b5873" d="M385.4131 96.1551l-29.8669-22.4c-2.24-1.6877-5.2717-1.9565-7.8099-.7021-2.5389 1.2691-4.1363 3.8528-4.1363 6.6752v66.9459c-25.4611-7.6909-62.5261-11.3645-92.4525-13.0963-.7616-.5971-1.6429-1.0605-2.6432-1.3293-2.0461-.5523-4.1216-.1645-5.824.8813-14.2611-.7168-26.208-.9709-33.4803-1.0752v-18.7264l26.88-20.16c1.8816-1.4035 2.9869-3.6288 2.9869-5.9731 0-2.3443-1.1053-4.5696-2.9869-5.9731l-29.8669-22.4c-2.24-1.6877-5.2864-1.9565-7.8099-.7021-2.5389 1.2691-4.1363 3.8528-4.1363 6.6752v67.2595c-7.2723.1043-19.2045.3731-33.4509 1.0605-1.7024-1.0304-3.7779-1.4189-5.824-.8659-1.0003.2688-1.8816.7315-2.6432 1.3139-36.5267 2.1203-83.7459 7.1085-107.4157 18.7859v-24.087l26.88-20.16c1.8816-1.4035 2.9869-3.6288 2.9869-5.9731 0-2.3443-1.1053-4.5696-2.9869-5.9731l-29.8669-22.4c-2.24-1.6877-5.2717-1.9565-7.8099-.7021-2.5382 1.2691-4.1363 3.8528-4.1363 6.6752v89.6c0 .7469.0595 1.4637.1939 2.1805l14.7392 132.2195c0 36.9152 150.3936 37.3331 156.8 37.3331 6.4064 0 156.8-.4179 156.7552-36.4973l14.784-133.056c.1344-.7168.1939-1.4483.1939-2.1651 0-.0147 0-.0147 0-.0147 0-6.8544-5.6749-12.4397-14.9331-16.9939v-24.073l26.8653-20.16c1.8963-1.4035 3.0016-3.6288 3.0016-5.9731 0-2.345-1.1053-4.5696-2.9869-5.9738zm-176.2131-16.4262 9.9603 7.4669-9.9603 7.4662v-14.9331zm-164.2669 14.9331 9.9603 7.4669-9.9603 7.4669v-14.9338zm206.9312 53.6851c23.5648 1.3888 43.4707 3.6883 59.5091 6.3763l-25.3869 31.7331c-.2387.3136-.3283.672-.5229 1.0157-.448.0448-.896.1043-1.3587.1491-1.6128.1792-3.1661.3584-4.8237.5376-2.7328.2688-5.6301.5075-8.4973.7616-1.6877.1491-3.3005.3136-5.0323.448-3.0163.2387-6.2125.4333-9.3779.6419-1.7325.1197-3.4048.2387-5.1821.3437-3.3005.1939-6.7648.3437-10.1997.4928-.2541.0147-.4928.0301-.7315.0301l11.6039-42.5299zm-50.1312-1.4182c12.2899 0 23.8931.2387 34.8397.672l-11.9469 43.7997c-.2688 0-.5229.0147-.7763.0301-1.568.0448-3.0765.1043-4.6739.1344-5.6595.1043-11.4688.1645-17.4419.1645-6.048 0-11.9469-.0595-17.6659-.1645-1.792-.0301-3.4496-.1043-5.2115-.1491l-11.9469-43.8144c10.9452-.434 22.5484-.6727 34.8236-.6727zm-50.1011 1.4035 11.6032 42.5453c-16.7552-.7315-31.8381-1.9117-45.2032-3.3901-.1939-.3437-.2835-.7315-.5376-1.0605l-25.3715-31.7037c16.0531-2.6873 35.8995-5.0022 59.5091-6.391zm-106.4896 21.2352c2.1805-3.3747 12.6637-7.7203 30.7027-11.7075.2093.4032.3136.8211.6125 1.1949l20.5779 25.7152c-31.2704-4.7789-49.175-10.9767-51.8931-15.2026zm193.9245 155.5904c-11.5885.5971-23.968.9555-37.3331.9555-13.3651 0-25.7299-.3584-37.3331-.9555v-36.3629c0-4.1216 3.3453-7.4669 7.4669-7.4669h59.7324c4.1216 0 7.4669 3.3453 7.4669 7.4669v36.3629zm104.5779-21.7875c-2.5683 6.3763-33.9283 16.6656-89.6448 20.8621v-35.4368c0-12.3501-10.0499-22.4-22.4-22.4h-59.7331c-12.3347 0-22.4 10.0499-22.4 22.4v35.4221c-55.7165-4.2112-87.0765-14.5747-89.6448-21.3101l-12.8429-115.6141c.2989.1344.672.2387.9709.3731 2.2995 1.0003 4.7187 1.9712 7.3472 2.8672.1491.0448.2688.1043.4179.1491 2.7629.9408 5.7491 1.792 8.8109 2.6285.6573.1792 1.3293.3584 2.0013.5376 3.0611.7917 6.2272 1.5379 9.5277 2.2253.5229.1043 1.0451.2093 1.568.3136 3.0317.6272 6.1376 1.2096 9.3037 1.7472.6573.1197 1.3139.2387 1.9712.3437 3.4643.5824 7.0035 1.12 10.5875 1.6128.8211.1197 1.6429.224 2.464.3283 3.5392.4781 7.0931.9261 10.6771 1.3293.1645.0147.3283.0448.5075.0595 3.7485.4179 7.5117.7917 11.2448 1.1501.8211.0749 1.6275.1491 2.4339.224 3.6141.3283 7.2128.6272 10.752.896.6272.0448 1.2397.0896 1.8669.1344 3.1661.2387 6.2867.448 9.3485.6272.6867.0595 1.3587.1043 2.0307.1491 3.3299.1939 6.5408.3731 9.6768.5229.8211.0448 1.5981.0749 2.4045.1197 2.8973.1344 5.7197.2541 8.3923.3584.2989.0147.6125.0301.9107.0301.2541.0147.4627.0147.7168.0301.0595 0 .1043.0595.1645.0595.1043 0 .1939-.0448.2989-.0448 2.4339.0896 4.7341.1645 6.9139.224.5229.0147 1.0304.0301 1.5379.0448 2.4045.0595 4.6445.1197 6.6752.1645.5523.0147 1.0157.0147 1.5379.0301 1.6877.0301 3.2109.0595 4.5696.0749.2989 0 .5971.0147.8659.0147 1.4637.0147 2.6579.0301 3.6435.0301.4781 0 .7315 0 1.0899 0 .6573 0 1.1795 0 1.4483 0h.0749c.2688 0 .8365 0 1.5533 0 .3283 0 .5523 0 .9709 0 1.0157 0 2.2547-.0147 3.7779-.0301.1939 0 .4032 0 .5971-.0147 1.4637-.0147 3.1213-.0448 4.9728-.0749.4179-.0147.7763-.0147 1.2243-.0147 2.1056-.0448 4.4499-.1043 6.944-.1645.3885-.0147.7763-.0301 1.1795-.0301 2.0909-.0595 4.2861-.1344 6.6003-.2093.2688.0301.5376.1043.8211.1043.1645 0 .2989-.1491.4627-.1491.2541-.0147.4781-.0147.7315-.0301.0448 0 .0749 0 .1197 0 2.8819-.1043 5.9437-.2387 9.0944-.3885.672-.0301 1.3293-.0595 2.0307-.0896 3.2256-.1645 6.5408-.3437 9.9603-.5376.5376-.0301 1.0899-.0749 1.6429-.1043 3.2256-.1939 6.5107-.4179 9.856-.672.5075-.0448 1.0003-.0749 1.5085-.1043 3.6141-.2688 7.2877-.5824 10.976-.9107.7315-.0595 1.4483-.1344 2.1651-.2093 3.808-.3584 7.6307-.7315 11.4541-1.1648.0595 0 .1197-.0147.1792-.0147 3.7037-.4179 7.3773-.8813 11.0355-1.3741.7763-.1043 1.5379-.2093 2.3149-.3136 3.6141-.5075 7.1827-1.0451 10.6771-1.6275.6272-.1043 1.2397-.224 1.8515-.3283 3.2256-.5523 6.3763-1.1501 9.4528-1.7773.4928-.1043 1.0003-.1939 1.4784-.2989 3.3005-.7021 6.4813-1.4483 9.5571-2.24.672-.1645 1.3139-.3437 1.9712-.5229 3.0765-.8365 6.0627-1.6877 8.8256-2.6285.1344-.0448.2541-.1043.4032-.1491 2.6432-.896 5.0624-1.8669 7.3773-2.8672.2989-.1344.672-.2387.9709-.3731l-12.8254 116.0313zm13.9027-133.385c-.2541.2541-.4781.4928-.8064.7469-.4032.3136-.9408.6272-1.4637.9555-.4179.2541-.8064.5075-1.2992.7763-.6419.3437-1.4035.6867-2.1651 1.0304-.5677.2541-1.0899.5075-1.7325.7763-.8659.3584-1.8816.7168-2.8819 1.0899-.7168.2541-1.3741.5229-2.1504.7763-1.1053.3731-2.3443.7315-3.5693 1.1053-.8659.2541-1.6723.5229-2.5984.7763-1.3293.3731-2.8224.7469-4.2861 1.12-.9856.2541-1.9117.5075-2.9568.7469-1.5981.3885-3.36.7616-5.1072 1.1347-1.0752.2387-2.1056.4781-3.2256.7021-1.8669.3885-3.8976.7469-5.8989 1.12-1.1795.224-2.2848.4333-3.5091.6573-2.0461.3584-4.256.7021-6.4365 1.0451-.3136.0448-.6125.0896-.9107.1491l20.5037-25.6256c.2989-.3731.4032-.8064.6125-1.2096 17.4867 3.8675 27.9552 8.0787 30.5683 11.4093-.1939.2401-.4326.4788-.6867.7175zm.9856-60.3904v-14.9331l9.9603 7.4669-9.9603 7.4662z"></path>
		</g>
	</g>
</svg>