<svg height="200px" width="200px" version="1.1" id="Capa_1" xmlns="http://www.w3.org/2000/svg" xmlns:xlink="http://www.w3.org/1999/xlink" viewBox="0 0 410.152 410.152" xml:space="preserve">
	<g id="SVGRepo_bgCarrier" stroke-width="0"></g>
	<g id="SVGRepo_tracerCarrier" stroke-linecap="round" stroke-linejoin="round"></g>
	<g id="SVGRepo_iconCarrier">
		<g>
			<path fill="#809BAB" stroke="#2b5873" stroke-width="3px" d="M0 400h400-50v-125h25v-15h-350v15h25v125h-50zM96 297v27h34v-27h-34zM163 297h146m-146 21h101z"></path>
			<path fill="#2b5873" d="M150 260c1-27-19-62-41-83 2-37 34-34 45-52 6-14 13-19 15-29h51c4 10 11 15 15 27 15 19 48 17 52 58-36 19-53 52-54 79h-83z"></path>
			<path fill="#2b5873" stroke="#809BAB" stroke-width="5px" d="M193 13c9-1 30 3 43 38 6 42-35 69-43 66-50-17-40-57-40-66 9-37 36-39 40-38z"></path>
			<path fill="#2b5873" stroke="#809BAB" stroke-width="3px" d="M133 172C150 186 164 192 171 245"></path>
		</g>
	</g>
</svg>