<svg height="200px" width="200px" version="1.1" id="Capa_1" xmlns="http://www.w3.org/2000/svg" xmlns:xlink="http://www.w3.org/1999/xlink" viewBox="0 0 410.152 410.152" xml:space="preserve">
	<g id="SVGRepo_bgCarrier" stroke-width="0"></g>
	<g id="SVGRepo_tracerCarrier" stroke-linecap="round" stroke-linejoin="round"></g>
	<g id="SVGRepo_iconCarrier">
		<g>
			<path fill="#2b5873" d="M208 156a28 28 90 01-28-28c0-15.54 12.6-28 28-28 15.54 0 28 12.46 28 28a28 28 90 01-28 28m0 70a28 28 90 01-28-28c0-15.54 12.6-28 28-28 15.54 0 28 12.46 28 28a28 28 90 01-28 28m0 70a28 28 90 01-28-28c0-15.54 12.6-28 28-28 15.54 0 28 12.46 28 28a28 28 90 01-28 28m112-126h-42v-15.96c24.08-6.3 42-28 42-54.04h-42v-14a14 14 90 00-14-14h-112a14 14 90 00-14 14v14h-42c0 26.04 17.92 47.74 42 54.04v15.96h-42c0 26.04 17.92 47.74 42 54.04v15.96h-42c0 26.04 17.92 47.74 42 54.04v15.96a14 14 90 0014 14h112a14 14 90 0014-14v-15.96c24.08-6.3 42-28 42-54.04h-42v-15.96c24.08-6.3 42-28 42-54.04z"></path>
			<path fill="transparent" stroke="#809BAB" stroke-width="5px" d="M230 128q0 21-22 21M230 198q0 22-22 22M230 268q0 22-22 22"></path>
		</g>
	</g>
</svg>