<svg height="200px" width="200px" version="1.1" id="Capa_1" xmlns="http://www.w3.org/2000/svg" xmlns:xlink="http://www.w3.org/1999/xlink" viewBox="0 0 410.152 410.152" xml:space="preserve">
	<g id="SVGRepo_bgCarrier" stroke-width="0"></g>
	<g id="SVGRepo_tracerCarrier" stroke-linecap="round" stroke-linejoin="round"></g>
	<g id="SVGRepo_iconCarrier">
		<g>
			<path fill="#809BAB" d="M372.4269 356.5967h-71.68-65.7069-65.7069-65.7069-77.6531c-3.3033 0-5.9731 2.6761-5.9731 5.9731s2.6698 5.9731 5.9731 5.9731h346.4531c3.3033 0 5.9731-2.6761 5.9731-5.9731s-2.6691-5.9731-5.9724-5.9731zM150.201 263.544h196.699v-7.711h-196.7v7.711zM64.1 221.3v16.1l21.7 6.3v59.5h-32.9v23.8h301v-23.1h-206.5v-82.6h-83.3z"></path>
			<path fill="#2b5873" d="M354.5069 296.8636h-14.7245l-3.9844-5.9731h.7882c10.2144 0 17.92-12.8366 17.92-29.8669s-7.7056-29.8669-17.92-29.8669h-29.8662v-11.9469c0-7.8491-5.1009-14.4613-12.1436-16.8805.3647-1.1228.7469-2.24.9142-3.4706.8722-6.4631-1.2068-12.7232-5.5251-17.2746 1.8039-6.1285 1.6548-13.8642-2.6047-19.999-2.0671-2.975-6.4694-7.3409-14.8799-8.2369.9674-9.6173-2.7713-18.9294-10.6085-25.5717-9.6229-8.1473-22.7283-10.4713-34.5261-6.6185-1.1053-2.6698-2.7237-4.8503-4.8566-6.5107-2.5746-2.0069-5.6868-3.1598-9.4143-3.4762 1.4217-9.2764-.5915-18.41-5.8954-25.9602-7.0721-10.059-18.6844-15.7395-31.8738-15.3335-14.1631 0-28.2716 7.6699-35.1113 19.0848-4.9098 8.2131-5.6329 17.5735-2.1686 26.8023-14.2583 11.8986-15.7514 27.8593-10.4713 39.1552 5.3823 11.5283 18.8937 20.7935 37.716 17.5973 2.4549 4.8979 7.1022 9.4017 13.0634 12.383 8.2432 4.1216 17.5735 4.7908 26.3606 2.079.896 5.5972 3.7093 9.6292 6.4393 12.3347 10.6204 10.5308 30.6432 11.7971 46.0901 8.5239 3.9424 3.094 9.1749 5.131 14.6048 5.8954-.5677 1.7325-.9499 3.5539-.9499 5.4775v11.9469h-31.1808c-3.2074-7.0245-11.9882-11.9469-22.5792-11.9469-10.591 0-19.3718 4.9217-22.5792 11.9469h-43.1277v-11.9469c0-3.297-2.6698-5.9731-5.9731-5.9731h-83.6262c-3.3033 0-5.9731 2.6761-5.9731 5.9731v17.92c0 2.7419 1.8634 5.131 4.5276 5.7939l19.3655 4.8447v49.0945h-29.8662c-3.3033 0-5.9731 2.6761-5.9731 5.9731v23.8931c0 3.297 2.6698 5.9731 5.9731 5.9731h29.8669c0 13.1775 10.7163 23.8931 23.8931 23.8931s23.8931-10.7163 23.8931-23.8931h17.92c0 13.1775 10.7163 23.8931 23.8931 23.8931 13.1775 0 23.8931-10.7163 23.8931-23.8931h17.92c0 13.1775 10.7163 23.8931 23.8931 23.8931s23.8931-10.7163 23.8931-23.8931h17.92c0 13.1775 10.7163 23.8931 23.8931 23.8931 13.1775 0 23.8931-10.7163 23.8931-23.8931h29.8669c3.3033 0 5.9731-2.6761 5.9731-5.9731v-23.8931c.0014-3.297-2.6684-5.9731-5.9717-5.9731zM263.3718 197.2998c-1.1291-1.2726-2.7594-1.9831-4.438-1.9831-.5075 0-1.0213.0658-1.5295.1974-14.9093 3.9424-31.1871 1.9236-37.8588-4.6893-3.0401-3.0163-3.8948-6.923-2.6166-11.9469.6153-2.3835-.3045-4.8979-2.3058-6.3315-1.995-1.4399-4.6711-1.4931-6.7382-.1554-10.9431 7.1141-20.5723 3.6379-24.2158 1.8221-5.2808-2.6404-8.2131-6.6066-8.3804-9.1574-.1253-1.8039-1.057-3.4587-2.5389-4.4982-1.4875-1.0332-3.3572-1.3377-5.0953-.8421-16.0384 4.6711-25.7929-2.3954-29.281-9.8497-3.3271-7.1204-2.6047-18.5234 10.3817-27.2384 2.5564-1.7143 3.3866-5.0771 1.9411-7.7833-3.787-7.0602-3.871-13.7032-.2569-19.7421 4.6053-7.6937 15.0591-13.279 25.0047-13.279 9.1273-.2506 17.2214 3.5182 21.952 10.2564 4.6235 6.5765 5.4236 15.1123 2.198 23.4213-.7826 2.0251-.406 4.319.9856 5.985 1.3797 1.6667 3.5959 2.443 5.7106 2.037 4.235-.8064 7.3535-.6153 8.8347.5313 1.4399 1.1228 1.8753 3.8171 1.995 5.8779.1134 2.0846 1.3083 3.9606 3.1479 4.9399s4.0677.9317 5.8541-.1316c10.3103-6.0991 21.749-3.1661 28.0091 2.1441 2.9687 2.5088 9.408 9.5277 5.1849 20.4288-.7644 1.9775-.4242 4.2112.8897 5.866 1.3139 1.6604 3.4286 2.485 5.5076 2.2043 4.0383-.5733 9.3779-.5075 11.8153 3.0044 2.2939 3.3033 1.8039 8.8641.0301 12.1261-1.4875 2.7419-.6209 6.1642 2.0013 7.861 3.5721 2.3114 4.4443 6.1047 4.074 8.8823-.2926 2.1686-1.3503 3.8948-2.527 4.2707-6.5114 1.9369-14.5635-.6734-17.7352-4.228zM151.4131 243.1036h47.7869c3.3033 0 5.9731-2.6761 5.9731-5.9731 0-2.4374 4.6529-5.9731 11.9469-5.9731 7.2933 0 11.9469 3.5364 11.9469 5.9731 0 3.297 2.6698 5.9731 5.9731 5.9731h41.8131c3.3033 0 5.9731-2.6761 5.9731-5.9731v-17.92c0-3.2914 2.6761-5.9731 5.9731-5.9731s5.9731 2.6817 5.9731 5.9731v17.92c0 3.297 2.6698 5.9731 5.9731 5.9731h35.84c1.4875 0 5.9731 6.3553 5.9731 17.92 0 11.5647-4.4863 17.92-5.9731 17.92h-11.9455c-2.2043 0-4.2294 1.2124-5.2682 3.1542-1.0395 1.9411-.9198 4.3008.2989 6.1285l5.7582 8.6317h-174.0158v-53.7544zM103.6269 344.6505c-6.5884 0-11.9469-5.3578-11.9469-11.9469h23.8931c0 6.5947-5.3578 11.9469-11.9462 11.9469zM169.3331 344.6505c-6.5884 0-11.9469-5.3578-11.9469-11.9469h23.8938c0 6.5947-5.3578 11.9469-11.9469 11.9469Zm65.7069 0c-6.5884 0-11.9469-5.3578-11.9469-11.9469h23.8931c.0007 6.5947-5.3578 11.9469-11.9462 11.9469zM300.7469 344.6505c-6.5884 0-11.9469-5.3578-11.9469-11.9469h23.8931c0 6.5947-5.3578 11.9469-11.9462 11.9469zM348.5331 320.763h-292.6931v-.0063-11.9469h29.8669c3.3033 0 5.9731-2.6761 5.9731-5.9731v-59.7331c0-2.7419-1.8697-5.131-4.5276-5.7939l-19.3655-4.8384v-7.2814h71.68v77.6531c0 3.297 2.6698 5.9731 5.9731 5.9731h203.0931v11.9469z"></path>
		</g>
	</g>
</svg>