<svg height="200px" width="200px" version="1.1" id="Capa_1" xmlns="http://www.w3.org/2000/svg" xmlns:xlink="http://www.w3.org/1999/xlink" viewBox="0 0 410.152 410.152" xml:space="preserve">
	<g id="SVGRepo_bgCarrier" stroke-width="0"></g>
	<g id="SVGRepo_tracerCarrier" stroke-linecap="round" stroke-linejoin="round"></g>
	<g id="SVGRepo_iconCarrier">
		<g>
			<path fill="#809BAB" d="M83.455 69.4l250.4-.8-9.525-38.402-235.675 1.871-5.3 37.096ZM292 310a1 1 0 000 78 1 1 0 000-78Z"></path>
			<path fill="#2b5873" d="M213.196 108.2368c-1.072-1.856-3.052-3-5.196-3s-4.124 1.144-5.196 3l-36.3624 62.9824-2.804-9.644c-.9248-3.1816-4.2544-5.0112-7.436-4.0864-3.1824.9248-5.012 4.2544-4.0864 7.436l6.7296 23.148c.76 2.6136 3.148 4.3264 5.7576 4.3264.4736 0 .9544-.056 1.4336-.1744l23.412-5.7464c3.2184-.7896 5.1864-4.0392 4.3968-7.2568-.7896-3.2184-4.0424-5.1864-7.2568-4.3968l-9.7536 2.3936 31.1656-53.9816 17.8664 30.9464c1.6568 2.8704 5.328 3.8528 8.196 2.196 2.8696-1.6568 3.8528-5.3264 2.196-8M147.4096 204.1832l-23.0528 39.9288c-1.072 1.856-1.072 4.144 0 6s3.052 3 5.196 3h72.7248l-6.9504 7.2504c-2.2936 2.392-2.2128 6.1904.1792 8.4832 1.1632 1.1152 2.6584 1.6688 4.1512 1.6688 1.5784 0 3.1536-.6184 4.332-1.848l16.6816-17.4024c2.2248-2.3208 2.2248-5.9832 0-8.304l-16.6816-17.4016c-2.2928-2.392-6.0912-2.472-8.4832-.1792s-2.4728 6.0912-.1792 8.4832l6.9496 7.2504h-62.3328l17.8568-30.9288c1.6568-2.8696.6736-6.5392-2.196-8.196-2.8696-1.6584-6.5384-.676-8.1952 2.1952zM272.292 179.1272c.7896-3.2184-1.1792-6.4672-4.3968-7.2568l-23.412-5.7456c-3.1224-.7664-6.2936 1.0648-7.192 4.152l-6.7296 23.148c-.9248 3.1824.9048 6.5112 4.0864 7.436.5592.1632 1.1232.24 1.6784.24 2.6 0 4.996-1.704 5.7584-4.3264l2.8032-9.644 31.1672 53.9816h-35.7152c-3.3144 0-6 2.6864-6 6s2.6856 6 6 6h46.1072c2.144 0 4.124-1.144 5.196-3s1.072-4.144 0-6l-36.3632-62.9816 9.7544 2.3936c3.2136.7904 6.468-1.1792 7.2576-4.3968M357.1448 62.396h-18c0-4.3896 0-10.328 0-11.1976 0-17.2032-14.192-31.1984-31.636-31.1984h-199.0184c-17.444 0-31.6352 13.9952-31.6352 31.1984v11.1976h-18c-3.3136 0-6 2.6864-6 6s2.6864 6 6 6h298.2904c3.3144 0 6-2.6864 6-6s-2.6864-6-6.0008-6zM88.8552 51.1984c0-10.5864 8.808-19.1984 19.6352-19.1984h199.0192c10.8272 0 19.636 8.612 19.636 19.1984 0 .7976 0 6.7808 0 11.1976h-238.2904v-11.1976 16.0016zM323.7224 297.6904c3.196 0 5.8528-2.5216 5.9896-5.7456l8.4576-199.2952c.1408-3.3104-2.4296-6.1088-5.74-6.2488-3.3192-.1608-6.1096 2.4288-6.2496 5.74l-8.4576 199.2952c-.1408 3.3104 2.4296 6.1088 5.74 6.2488.0872.004.1744.0056.26.0056zM240.4936 383.036H121.7584c-10.9648 0-20.2632-8.912-20.728-19.8664l-11.5024-271.028c-.14-3.3104-2.94-5.892-6.2488-5.74-3.3112.1408-5.8808 2.9384-5.74 6.2488l11.5024 271.028c.7336 17.2912 15.4104 31.3584 32.7168 31.3584h118.7344c3.3144 0 6-2.6864 6-6s-2.6848-6.0008-5.9992-6.0008zM291.8224 301.3552c-26.0936 0-47.3224 21.2288-47.3224 47.3224s21.2288 47.3224 47.3224 47.3224 47.3224-21.2288 47.3224-47.3224-21.2288-47.3224-47.3224-47.3224zM291.8224 384c-19.4776 0-35.3224-15.8456-35.3224-35.3224s15.8456-35.3224 35.3224-35.3224 35.3224 15.8456 35.3224 35.3224-15.8448 35.3224-35.3224 35.3224zM309.1448 342.6776c-3.3144 0-6 2.6864-6 6 0 6.2432-5.08 11.3224-11.3224 11.3224s-11.3224-5.0792-11.3224-11.3224 5.08-11.3224 11.3224-11.3224c3.3144 0 6-2.6864 6-6s-2.6856-6-6-6c-12.86 0-23.3224 10.4624-23.3224 23.3224s10.4624 23.3224 23.3224 23.3224 23.3224-10.4624 23.3224-23.3224c-0-3.3136-2.6856-6-6-6z"></path>
		</g>
	</g>
</svg>