<svg height="200px" width="200px" version="1.1" id="Capa_1" xmlns="http://www.w3.org/2000/svg" xmlns:xlink="http://www.w3.org/1999/xlink" viewBox="0 0 410.152 410.152" xml:space="preserve">
	<g id="SVGRepo_bgCarrier" stroke-width="0"></g>
	<g id="SVGRepo_tracerCarrier" stroke-linecap="round" stroke-linejoin="round"></g>
	<g id="SVGRepo_iconCarrier">
		<g>
			<path fill="#809BAB" d="M219 108h-27l-12 70 15-9 16 21-42 45-18 113h44l4-34 14-5 15 6 3 33h45l-28-166-13-14 9-12-5-28-20-20z"></path>
			<path fill="#2b5873" d="M348.0835 233.3872l-90.3602-90.3596c-2.1269-2.1269-5.5748-2.1269-7.7004 0l-1.996 1.996-3.6673-22.0037 83.187-83.187c2.1269-2.1269 2.1269-5.5748 0-7.7004l-20.5362-20.5376c-1.0213-1.0213-2.4064-1.595-3.8502-1.595s-2.8296.5737-3.8502 1.595l-89.1554 89.1547h-15.6688c-5.4128 0-9.9954 3.8016-11.0322 9.0808l-77.6986-77.6993c-1.861-1.861-4.7331-2.0932-6.8465-.698-.3017.1998-.5879.432-.8546.698l-20.5375 20.5369c-1.0213 1.0206-1.595 2.4064-1.595 3.8502s.5737 2.8296 1.595 3.8502l90.3602 90.3602c1.0631 1.0631 2.457 1.595 3.8502 1.595s2.7871-.5312 3.8502-1.595l1.2542-1.2542-5.134 30.8043-73.6439 73.6445c-2.1269 2.1269-2.1269 5.5748 0 7.7004l20.5362 20.5369c1.0206 1.0213 2.4064 1.595 3.8502 1.595s2.8296-.5737 3.8502-1.595l34.1125-34.1125-16.1102 96.66h-12.8122c-3.0071 0-5.4452 2.4381-5.4452 5.4452 0 3.0071 2.4381 5.4452 5.4452 5.4452h162.6392c3.0071 0 5.4452-2.4381 5.4452-5.4452 0-3.0071-2.4381-5.4452-5.4452-5.4452h-12.8122l-24.325-145.9478 62.8627 62.8627c.9301.9308 2.1134 1.4533 3.3284 1.57.1735.0169.3476.025.5218.025 1.3932 0 2.7871-.5312 3.8502-1.595l20.5369-20.5362c1.0213-1.0206 1.595-2.4064 1.595-3.8502s-.5724-2.8282-1.5937-3.8495zM206.6285 146.8785c0-3.4034 2.7682-6.1715 6.1715-6.1715 3.4034 0 6.1715 2.7682 6.1715 6.1715 0 3.4034-2.7689 6.1715-6.1715 6.1715-3.4033 0-6.1715-2.7682-6.1715-6.1715zM233.3362 159.713l-5.2562-5.2555c1.1387-2.2849 1.782-4.858 1.782-7.5796 0-2.7216-.644-5.2947-1.782-7.5796l6.8141-6.8141 3.6679 22.003-5.2258 5.2259zM303.1602 23.1463l12.8351 12.8351-82.6592 82.6598-12.8351-12.8351 82.6592-82.6598zM194.1282 111.9446c.0297-.1755.1802-.3038.3578-.3038h16.4484l14.7008 14.7008-5.2562 5.2555c-2.2849-1.1387-4.858-1.782-7.5796-1.782s-5.2947.644-7.5796 1.782l-12.3154-12.3147 1.2238-7.3379zM171.7276 139.1768l-82.6591-82.6585 12.8351-12.8351 82.6585 82.6585-12.8345 12.8351zM190.0815 136.225l2.1823-2.1823 5.2562 5.2555c-1.1387 2.2849-1.782 4.858-1.782 7.5796 0 2.7216.644 5.2947 1.782 7.5796l-12.5719 12.5719 5.1334-30.8043zM122.4398 270.6101l-12.8351-12.8351 82.6592-82.6592 12.8351 12.8351-82.6592 82.6592zM224.7799 344.7089h-23.9605v-17.7889c0-6.6055 5.3743-11.9799 11.9799-11.9799s11.9799 5.3743 11.9799 11.9799v17.7889zM270.2661 344.7089h-34.5944v-17.7889c0-12.611-10.26-22.871-22.871-22.871s-22.871 10.26-22.871 22.871v17.7889h-34.5944l18.3181-109.9103 42.9975-42.9988c2.1269-2.1269 2.1269-5.5748 0-7.7004l-16.686-16.686 5.2555-5.2555c2.2849 1.1387 4.858 1.782 7.5802 1.782 2.7216 0 5.2947-.644 7.5796-1.782l23.353 23.353 26.5329 159.1981zM323.6958 250.0732l-82.6585-82.6585 12.8351-12.8351 82.6585 82.6585-12.8351 12.8351zM212.8 216.9206c-3.0071 0-5.4452 2.4381-5.4452 5.4452v5.8084c0 3.0071 2.4381 5.4452 5.4452 5.4452 3.0071 0 5.4452-2.4381 5.4452-5.4452v-5.8084c0-3.0071-2.4381-5.4452-5.4452-5.4452zM212.8 251.7722c-3.0071 0-5.4452 2.4381-5.4452 5.4452v5.8084c0 3.0071 2.4381 5.4452 5.4452 5.4452 3.0071 0 5.4452-2.4381 5.4452-5.4452v-5.8084c0-3.0071-2.4381-5.4452-5.4452-5.4452z"></path>
		</g>
	</g>
</svg>