<svg height="200px" width="200px" version="1.1" id="Capa_1" xmlns="http://www.w3.org/2000/svg" xmlns:xlink="http://www.w3.org/1999/xlink" viewBox="0 0 410.152 410.152" xml:space="preserve">
	<g id="SVGRepo_bgCarrier" stroke-width="0"></g>
	<g id="SVGRepo_tracerCarrier" stroke-linecap="round" stroke-linejoin="round"></g>
	<g id="SVGRepo_iconCarrier">
		<g>
			<path fill="#555555" stroke="#000000" stroke-width="5px" d="M320.465 240.3792c-28.5516-10.1322-34.1808-6.291-48.1284-19.509-3.336-3.153-3.2628-13.494 15.282-11.055 9.2982 1.2252 15.6048-3.9036 15.6048-11.2212 0-4.8786-5.8794-11.6598-14.6358-8.2926-12.6756 4.8786-20.9004-.6564-22.4328-6.828-1.95-7.8024.2604-16.6992 32.8884-32.9976 39.9876-19.9992 17.0538-56.3898-14.3544-22.1154-13.9164 15.1776-20.484 21.4584-29.7504 26.337-8.3184 4.3728-18.294-.162-10.737-10.2414 2.9292-3.9042 7.902-6.9162 9.267-11.7066 1.9494-6.828-3.7944-13.1712-8.7768-13.1712-4.9824 0-11.2164 2.9244-13.1658 10.242-2.9292 13.4154-10.3932 12.744-13.9164 8.871-6.7446-7.3908-4.3158-16.0116-3.1584-29.3544 1.3656-15.6726 10.6428-51.8658-17.8254-49.197-13.728 1.2876-17.7834 14.229-13.3428 37.3602 5.5248 28.7136-2.835 48.7542-11.7582 52.8042-10.7268 4.878-16.1676 3.0276-39.0174-12.6756-12.144-8.3556-25.5504-1.0218-28.2912 8.7768-2.4186 8.631 4.3992 19.0608 14.6358 22.4376 15.7716 5.2068 22.7664 6.4158 30.084 10.398 7.1508 3.9042 8.0472 13.3692.9066 21.9324-7.1508 8.5692-25.623 1.4808-52.9344-.4692-47.211-3.3666-36.5994 48.858 7.7976 33.4986 25.362-8.7822 36.0882-6.8334 40.4874-1.4646 6.0672 7.4064 1.8972 17.4186-9.924 24.549-37.7148 22.7664 4.566 51.0468 20.1708 19.509 6.5256-13.1766 14.031-17.226 21.4536-14.3076 6.0564 2.3874 13.812 23.5224 5.0454 52.032-7.8078 25.3632-7.2762 52.6794 11.0592 52.6794 17.1378 0 19.8168-25.5234 16.8984-53.325-1.0848-10.4034-.282-26.5242 7.8072-30.5688 6.5052-3.2526 16.6686-6.8748 23.5698 7.4742 6.348 13.1706 20.004 11.2158 25.3722 3.9036 3.9192-5.3526 5.9106-17.226-9.6942-23.3814-18.597-7.3494-11.769-27.348 2.3766-25.3938 15.6156 2.1528 26.3208 7.902 44.8764 23.7414 25.893 22.0896 59.136-14.0568 16.2606-29.271zM147 100a1 1 0 000 11 1 1 0 000-11zM85 133a1 1 0 000 6 1 1 0 000-6zM110 274a1 1 0 000 5 1 1 0 000-5zM135 302a1 1 0 000 16 1 1 0 000-16zM284 314a1 1 0 001 25 1 1 0 00-1-25zM296 303a1 1 0 000 9 1 1 0 000-9zM321 174a1 1 0 00-3 12 1 1 0 003-12z"></path>
		</g>
	</g>
</svg>